<svg width="11" height="14" viewBox="0 0 11 14" fill="none" xmlns="http://www.w3.org/2000/svg">
<path d="M1.64026 1.72594C1.57589 1.68778 1.50256 1.66733 1.42772 1.66667C1.35288 1.66602 1.2792 1.68519 1.21417 1.72222C1.14914 1.75926 1.09507 1.81285 1.05745 1.87755C1.01983 1.94225 1.00001 2.01576 1 2.0906V11.9094C1.00001 11.9842 1.01983 12.0577 1.05745 12.1224C1.09507 12.1871 1.14914 12.2407 1.21417 12.2778C1.2792 12.3148 1.35288 12.334 1.42772 12.3333C1.50256 12.3327 1.57589 12.3122 1.64026 12.274L9.92482 7.36464C9.98809 7.3271 10.0405 7.27374 10.0769 7.2098C10.1133 7.14587 10.1325 7.07356 10.1325 6.99999C10.1325 6.92642 10.1133 6.85411 10.0769 6.79018C10.0405 6.72624 9.98809 6.67288 9.92482 6.63534L1.64026 1.72594Z" fill="white" stroke="white" stroke-width="1.5" stroke-linecap="round" stroke-linejoin="round"/>
</svg>
